<svg width="271" height="58" viewBox="0 0 271 58" fill="none" xmlns="http://www.w3.org/2000/svg">
<path fill-rule="evenodd" clip-rule="evenodd" d="M0 57.8V6.10352e-06C4.86995 0.599999 15.8265 11 20.3913 25.2C24.9561 11 35.9131 0.599993 40.783 0V57.8L0 57.8ZM26.8844 33.3C24.8099 32.0096 23.5201 31.5297 20.8989 31.3L20.752 27.194C17.1093 27.5212 15.2048 28.0167 12.2714 29.9455L14.6717 33.3429C12.7855 34.889 11.924 35.9498 10.8924 38.3361L6.97328 37.2517C6.16336 40.7677 6.05283 42.7063 7.00738 46.0522L11.027 44.8519C11.9359 47.0979 12.6815 48.197 14.6651 49.9015L12.2394 53.2456C15.3814 55.0914 17.2177 55.794 20.741 55.9331L20.825 51.7939C23.2729 51.6359 24.6243 51.1538 26.8819 49.821L29.3588 53.1284C32.1106 50.7532 33.356 49.2489 34.579 45.9889L30.6113 44.631C31.2153 42.2874 31.3278 40.9282 30.7395 38.4L34.696 37.1C33.2547 33.7863 32.1881 32.1539 29.4207 30L26.8844 33.3ZM26.4787 41.6C26.4787 44.6928 23.9351 47.2 20.7975 47.2C17.6599 47.2 15.1163 44.6928 15.1163 41.6C15.1163 38.5072 17.6599 36 20.7975 36C23.9351 36 26.4787 38.5072 26.4787 41.6Z" fill="white"/>
<path fill-rule="evenodd" clip-rule="evenodd" d="M187.743 13.3228C188.828 14.2054 188.802 13.9374 188.686 22.9999C188.446 41.7124 188.497 47.5662 188.934 51.1873C189.154 53.0164 189.334 54.898 189.333 55.3686C189.329 57.922 186.283 58.9671 184.842 56.9094C184.643 56.625 184.403 55.0793 184.078 51.9882C183.645 47.8556 183.614 46.9844 183.71 41.4946C183.768 38.2018 183.775 35.5933 183.726 35.6978C183.678 35.8024 182.909 39.48 182.019 43.8703C179.587 55.8608 179.432 56.4975 178.874 56.8067C178.079 57.2467 176.714 57.15 176.07 56.6079C175.377 56.0248 175.235 55.6575 174.604 52.803C174.133 50.6763 171.373 39.1025 170.933 37.4083C170.789 36.8558 170.739 39.3245 170.75 46.4387C170.764 55.3313 170.735 56.2873 170.439 56.8594C169.866 57.9676 168.315 58.3431 167.188 57.6464C165.871 56.8327 165.944 58.0212 165.931 36.9809C165.924 26.5507 165.983 17.505 166.061 16.8793C166.374 14.3635 167.154 13.5474 169.23 13.5643C170.116 13.5714 170.325 13.6553 171.013 14.277L171.792 14.9816L172.98 21.8236C174.308 29.4771 175.921 37.6725 176.72 40.8294L177.249 42.92L178.7 35.6028C180.675 25.6472 181.476 22.5289 183.643 16.3536C184.455 14.0383 184.716 13.4967 185.128 13.2728C185.83 12.8917 187.246 12.9187 187.743 13.3228ZM209.25 14.1081C211.111 15.4875 211.593 16.1052 212.433 18.1888C213.674 21.2683 214.508 24.7598 215.387 30.5663C215.747 32.946 215.779 33.7891 215.695 38.5487C215.617 42.9882 215.538 44.1381 215.219 45.4858C214.263 49.5285 212.986 52.0793 210.628 54.6593C209.084 56.3487 207.793 56.9673 205.203 57.2577C202.611 57.5483 201.199 56.8413 199.272 54.2872C196.072 50.0464 195.157 46.8376 194.457 37.4083C194.142 33.1577 194.555 28.5768 195.63 24.3894C196.557 20.7829 198.973 16.3869 200.791 15.0006C202.208 13.9195 204.891 13.0344 206.851 13.001C207.645 12.9875 207.893 13.1019 209.25 14.1081ZM263.841 14.0569C265.987 14.657 268.483 16.985 269.759 19.5775C270.512 21.1056 270.722 23.167 270.22 24.0992C269.363 25.6902 266.974 25.7603 266.065 24.221C265.904 23.9479 265.71 23.3821 265.634 22.964C265.29 21.0769 263.773 19.0891 262.383 18.7031C260.989 18.3159 259.703 18.4425 258.596 19.0756C257.715 19.5798 257.536 19.7873 257.194 20.7025C256.356 22.9406 256.226 24.4997 256.719 26.3926C257.215 28.2974 257.714 28.9137 260.645 31.2492C267.738 36.9011 269.645 39.8248 270.02 45.6234C270.127 47.2784 270.087 47.6642 269.647 49.1552C269.03 51.2479 268.476 52.3487 267.305 53.8072C266.302 55.0572 265.237 56.0104 263.697 57.0367C262.87 57.5875 262.481 57.7155 261.403 57.7927C255.379 58.2238 250.572 53.8283 249.862 47.2406L249.734 46.0493L250.491 45.2925C251.156 44.6273 251.355 44.5355 252.131 44.5355C252.916 44.5355 253.103 44.6248 253.821 45.3434C254.502 46.0236 254.664 46.3384 254.849 47.3356C255.388 50.2319 256.758 52.0047 258.991 52.6945C260.859 53.2713 261 53.2392 262.419 51.912C264.395 50.0635 265.285 47.8871 265.119 45.3119C264.885 41.6882 263.036 39.1892 257.318 34.7675C254.7 32.7426 253.888 31.9132 252.925 30.2787C251.72 28.2341 251.301 23.6224 252.053 20.6833C252.804 17.7477 253.869 16.066 255.657 14.9943C257.041 14.1645 257.904 13.9036 259.746 13.7568C261.598 13.6096 262.468 13.6732 263.841 14.0569ZM231.771 14.9002C235.477 15.8319 236.88 16.5132 238.501 18.1681C242.833 22.5901 244.873 29.2509 244.434 37.5357C244.15 42.9004 242.423 47.2641 238.81 51.7516C235.84 55.4393 233.078 56.7932 227.005 57.5377C225.48 57.7245 225.019 57.7268 224.915 57.5481C224.841 57.4219 224.418 57.1357 223.976 56.912C222.54 56.1853 222.516 56.0704 222.376 49.2869C222.309 45.9942 222.192 40.3922 222.116 36.8382C221.907 26.9966 222.299 19.5057 223.21 15.9459C223.42 15.1268 223.554 14.9542 224.287 14.568C224.992 14.1966 225.409 14.1263 226.909 14.1263C228.365 14.1263 229.259 14.2687 231.771 14.9002ZM204.335 18.4933C203.159 19.1153 202.364 20.2024 201.534 22.3237C199.818 26.714 199.334 29.4518 199.324 34.8426C199.316 39.0092 199.683 42.4836 200.488 45.8659C201.125 48.544 203.502 52.5179 204.466 52.5179C206.46 52.5179 208.448 50.2788 209.807 46.5016L210.686 44.0604L210.765 38.5015C210.852 32.4703 210.807 31.9797 209.648 26.3423C208.77 22.0646 207.44 18.6518 206.515 18.3002C205.801 18.0288 205.096 18.0911 204.335 18.4933ZM227.329 19.772C227.32 20.1686 227.213 23.2301 227.091 26.5751C226.882 32.3519 226.909 35.8829 227.256 47.5947L227.405 52.6492L229.134 52.2415C232.05 51.5533 233.667 50.4451 235.709 47.7351C237.153 45.8191 238.44 43.158 239.08 40.7691C239.535 39.0693 239.573 38.6243 239.578 34.9376C239.583 31.1345 239.559 30.8677 239.07 29.2783C238.069 26.0203 235.727 21.9622 234.269 20.9591C233.208 20.2287 232.297 19.9092 230.23 19.5424C227.034 18.975 227.348 18.9503 227.329 19.772Z" fill="white"/>
<path d="M74.4421 18.1849C73.6209 16.978 71.9191 15.2549 70.6562 14.3516C69.871 13.79 69.7235 13.7554 68.1888 13.7707C65.9125 13.7935 63.8408 14.384 61.7965 15.593C59.8003 16.7736 57.5354 20.3537 56.7191 23.619C55.9899 26.5362 55.3635 34.0147 55.5161 37.9841C55.7502 44.0718 56.5179 47.776 58.295 51.3919C59.6529 54.1549 60.1928 54.8438 61.8629 55.9448C65.9436 58.6349 69.0205 58.4185 72.8696 55.17C74.7346 53.5961 76.03 51.3674 76.7355 48.5188C77.2246 46.5439 77.456 41.269 77.0925 40.3834C76.7349 39.5124 75.8558 38.8461 75.0641 38.8461C74.5057 38.8461 73.1046 39.3289 73.1046 39.5214C73.1046 39.5528 72.9763 40.2541 72.8195 41.0798C72.6626 41.9055 72.3987 43.6985 72.233 45.0642C71.7122 49.3583 70.7886 51.0699 68.2928 52.3666L66.8884 53.096L65.6378 52.4747C64.2322 51.7763 63.5459 51.0383 62.5891 49.1961C60.8421 45.8321 60.1245 40.9863 60.4096 34.4786C60.7472 26.7685 61.2515 24.3632 63.1746 21.2909C64.1375 19.7528 64.5528 19.5144 67.8572 18.6017C68.3239 18.4728 70.253 20.4657 70.8851 21.7295C71.4731 22.9056 72.0766 25.1594 72.2418 26.7959C72.3118 27.4899 72.5308 28.3261 72.7284 28.654C73.5797 30.0666 75.367 30.2149 76.5003 28.9668L77.1441 28.2578L77.0287 26.5128C76.8283 23.4829 75.8049 20.188 74.4421 18.1849Z" fill="white"/>
<path d="M143.754 15.1011L143.087 14.4276C142.527 13.8624 142.287 13.7548 141.594 13.7573C140 13.7626 139.536 14.2777 139.055 16.5779C138.748 18.0443 138.275 36.4654 138.476 39.1334C138.539 39.9761 138.597 43.9349 138.604 47.9308C138.618 56.2915 138.623 56.3219 140.021 57.0075C140.662 57.3216 141.222 57.4254 142.275 57.4254C143.045 57.4254 144.73 57.5637 146.018 57.7328C148.707 58.0854 153.436 58.0109 156.887 57.5614C158.823 57.3093 158.995 57.2515 159.496 56.6851C160.464 55.5922 160.146 53.9779 158.777 53.0313C158.156 52.602 158.04 52.5886 156.28 52.7424C153.828 52.9566 146.838 52.9608 144.992 52.7493L143.521 52.5808L143.514 47.8682C143.51 45.2762 143.433 42.0635 143.342 40.7285C143.19 38.48 143.379 24.0705 143.644 17.7317L143.754 15.1011Z" fill="white"/>
<path d="M127.808 14.9607C125.541 14.9262 121.94 14.8132 119.804 14.7094C117.669 14.6056 115.747 14.5321 115.534 14.546C114.154 14.6366 112.172 14.926 111.447 15.143C109.966 15.5861 109.289 17.2402 110.053 18.5461C110.628 19.5278 110.971 19.5963 115.318 19.5963H119.321L119.317 22.4694C119.305 29.8692 119.245 47.8172 119.218 51.7189C119.19 55.9072 119.204 56.09 119.603 56.6554C120 57.2174 121.232 58 121.721 58C122.184 58 123.503 57.2342 123.775 56.8082C124.014 56.433 124.054 53.8413 124.059 38.3289C124.065 23.9615 124.115 20.2363 124.308 20.0415C124.49 19.858 125.366 19.8099 127.82 19.8482C131.507 19.9057 132.042 19.7689 132.841 18.5624C133.528 17.5243 133.333 16.3057 132.335 15.394C131.965 15.0559 131.567 15.0178 127.808 14.9607Z" fill="white"/>
<path fill-rule="evenodd" clip-rule="evenodd" d="M97.9097 14.1168C99.6031 15.3687 100.209 16.0697 100.823 17.4896C102.157 20.572 103.164 24.6608 104.048 30.5911C104.419 33.0759 104.451 33.8836 104.366 38.7315C104.267 44.3264 104.158 45.2383 103.252 48.04C102.756 49.5742 101.629 51.8619 100.784 53.0472C99.9747 54.184 98.3614 55.9063 97.691 56.3495C96.2848 57.2794 93.0863 57.855 91.592 57.4472C90.5122 57.1524 89.3914 56.2833 88.3335 54.9201C86.3147 52.3184 85.003 49.6546 84.3962 46.9233C83.4491 42.6608 82.9194 34.4246 83.3408 30.5141C83.9813 24.5704 85.1253 21.0693 87.6844 17.2195C89.2013 14.9377 90.7432 13.9057 93.5414 13.2999C95.8917 12.7911 96.1922 12.8473 97.9097 14.1168ZM90.7384 21.3177C91.4606 19.7569 92.2134 18.9129 93.3184 18.4258C94.0068 18.1222 94.5572 18.0985 95.1978 18.3442C96.2121 18.7333 97.598 22.4342 98.514 27.1993C99.5 32.3291 99.5257 32.645 99.4433 38.6545L99.366 44.3049L98.5478 46.6034C97.6764 49.0515 97.4527 49.4539 96.0443 51.1046C95.381 51.8822 94.8989 52.2462 94.2032 52.4944C93.6849 52.6794 93.129 52.7798 92.968 52.7176C92.1172 52.3879 90.0891 48.9513 89.447 46.7509C88.5305 43.61 87.8015 37.1134 87.9799 33.6745C88.235 28.754 89.1088 24.8405 90.7384 21.3177Z" fill="white"/>
</svg>
