<svg width="41" height="58" viewBox="0 0 41 58" fill="none" xmlns="http://www.w3.org/2000/svg">
<path fill-rule="evenodd" clip-rule="evenodd" d="M0 57.8V6.10352e-06C4.86995 0.6 15.8265 11 20.3913 25.2C24.9561 11 35.9131 0.599993 40.783 0V57.8L0 57.8ZM26.8844 33.3C24.8099 32.0096 23.5201 31.5297 20.8989 31.3L20.752 27.194C17.1093 27.5212 15.2048 28.0167 12.2714 29.9455L14.6717 33.3429C12.7855 34.889 11.924 35.9498 10.8924 38.3361L6.97328 37.2517C6.16336 40.7677 6.05283 42.7063 7.00738 46.0522L11.027 44.8519C11.9359 47.0979 12.6815 48.197 14.6651 49.9015L12.2394 53.2456C15.3814 55.0914 17.2177 55.794 20.741 55.9331L20.825 51.7939C23.2729 51.6359 24.6243 51.1538 26.8819 49.821L29.3588 53.1284C32.1106 50.7532 33.356 49.2489 34.579 45.9889L30.6113 44.631C31.2153 42.2874 31.3278 40.9282 30.7395 38.4L34.696 37.1C33.2547 33.7863 32.1881 32.1539 29.4207 30L26.8844 33.3ZM26.4787 41.6C26.4787 44.6928 23.9351 47.2 20.7975 47.2C17.6599 47.2 15.1163 44.6928 15.1163 41.6C15.1163 38.5072 17.6599 36 20.7975 36C23.9351 36 26.4787 38.5072 26.4787 41.6Z" fill="white"/>
</svg>
