<svg width="222" height="48" viewBox="0 0 222 48" fill="none" xmlns="http://www.w3.org/2000/svg">
<path fill-rule="evenodd" clip-rule="evenodd" d="M0 47.8345V5.05119e-06C3.99688 0.496551 12.9892 9.10345 16.7356 20.8552C20.4821 9.10345 29.4747 0.496546 33.4716 0V47.8345L0 47.8345ZM22.0647 27.5586C20.3621 26.4907 19.3035 26.0936 17.1522 25.9035L17.0316 22.5054C14.042 22.7762 12.4789 23.1862 10.0715 24.7825L12.0414 27.5941C10.4934 28.8736 9.78628 29.7516 8.93961 31.7264L5.72313 30.829C5.05841 33.7388 4.9677 35.3431 5.75112 38.1122L9.05015 37.1188C9.79606 38.9776 10.408 39.8872 12.036 41.2978L10.0451 44.0653C12.6239 45.5929 14.131 46.1744 17.0226 46.2895L17.0916 42.8639C19.1006 42.7332 20.2098 42.3342 22.0626 41.2312L24.0954 43.9683C26.3539 42.0026 27.3761 40.7577 28.3798 38.0598L25.1234 36.936C25.6191 34.9965 25.7115 33.8716 25.2286 31.7793L28.4759 30.7035C27.2929 27.961 26.4176 26.6101 24.1462 24.8276L22.0647 27.5586ZM21.7317 34.4276C21.7317 36.9871 19.6441 39.0621 17.069 39.0621C14.4939 39.0621 12.4063 36.9871 12.4063 34.4276C12.4063 31.868 14.4939 29.7931 17.069 29.7931C19.6441 29.7931 21.7317 31.868 21.7317 34.4276Z" fill="white"/>
<path fill-rule="evenodd" clip-rule="evenodd" d="M154.085 11.0257C154.976 11.7562 154.954 11.5344 154.859 19.0344C154.662 34.5206 154.704 39.3651 155.062 42.3619C155.243 43.8757 155.391 45.4328 155.39 45.8223C155.387 47.9354 152.887 48.8004 151.704 47.0974C151.541 46.8621 151.344 45.5829 151.077 43.0247C150.721 39.6046 150.696 38.8836 150.775 34.3403C150.823 31.6153 150.829 29.4565 150.789 29.543C150.749 29.6295 150.118 32.6731 149.387 36.3064C147.391 46.2296 147.264 46.7565 146.806 47.0124C146.154 47.3766 145.033 47.2965 144.505 46.8479C143.936 46.3654 143.82 46.0613 143.301 43.699C142.915 41.939 140.65 32.3607 140.288 30.9586C140.17 30.5014 140.129 32.5444 140.138 38.432C140.15 45.7914 140.126 46.5826 139.883 47.056C139.413 47.9732 138.14 48.284 137.215 47.7073C136.135 47.034 136.194 48.0175 136.183 30.6049C136.178 21.973 136.226 14.4869 136.29 13.9691C136.547 11.887 137.187 11.2116 138.891 11.2256C139.618 11.2315 139.79 11.301 140.354 11.8155L140.993 12.3985L141.968 18.0609C143.059 24.3948 144.383 31.1773 145.038 33.7898L145.472 35.52L146.663 29.4644C148.284 21.2253 148.941 18.6446 150.72 13.534C151.387 11.6179 151.601 11.1697 151.939 10.9844C152.515 10.669 153.677 10.6913 154.085 11.0257ZM171.737 11.6757C173.264 12.8173 173.659 13.3284 174.349 15.0528C175.368 17.6013 176.052 20.4909 176.773 25.2962C177.068 27.2656 177.095 27.9634 177.026 31.9024C176.962 35.5765 176.897 36.5281 176.635 37.6434C175.85 40.9891 174.803 43.1001 172.867 45.2353C171.6 46.6334 170.54 47.1454 168.415 47.3857C166.288 47.6262 165.129 47.0411 163.547 44.9273C160.921 41.4177 160.17 38.7622 159.595 30.9586C159.337 27.4409 159.675 23.6497 160.559 20.1843C161.319 17.1996 163.302 13.5615 164.794 12.4143C165.957 11.5196 168.159 10.7871 169.767 10.7594C170.419 10.7483 170.623 10.843 171.737 11.6757ZM216.54 11.6333C218.302 12.1299 220.351 14.0565 221.398 16.2021C222.015 17.4667 222.188 19.1727 221.776 19.9442C221.072 21.2608 219.112 21.3189 218.366 20.045C218.234 19.819 218.074 19.3507 218.012 19.0047C217.729 17.443 216.485 15.7979 215.344 15.4784C214.2 15.158 213.144 15.2628 212.236 15.7867C211.513 16.204 211.366 16.3757 211.085 17.1331C210.398 18.9853 210.291 20.2756 210.696 21.8422C211.103 23.4185 211.512 23.9286 213.917 25.8614C219.739 30.5388 221.304 32.9584 221.612 37.7573C221.7 39.127 221.666 39.4462 221.306 40.6802C220.799 42.4121 220.345 43.3231 219.384 44.5301C218.561 45.5646 217.686 46.3534 216.422 47.2028C215.744 47.6586 215.425 47.7646 214.54 47.8285C209.595 48.1852 205.65 44.5476 205.068 39.0956L204.963 38.1098L205.584 37.4834C206.13 36.9329 206.293 36.857 206.93 36.857C207.574 36.857 207.727 36.9309 208.317 37.5256C208.875 38.0885 209.009 38.349 209.161 39.1743C209.603 41.5712 210.728 43.0384 212.56 43.6092C214.093 44.0866 214.209 44.06 215.374 42.9617C216.995 41.4319 217.726 39.6307 217.589 37.4995C217.397 34.5006 215.88 32.4324 211.187 28.7731C209.038 27.0973 208.372 26.4109 207.582 25.0583C206.593 23.3661 206.249 19.5495 206.866 17.1172C207.482 14.6877 208.356 13.296 209.824 12.4091C210.96 11.7224 211.668 11.5064 213.18 11.385C214.7 11.2631 215.414 11.3158 216.54 11.6333ZM190.22 12.3312C193.262 13.1023 194.413 13.6661 195.744 15.0356C199.299 18.6953 200.973 24.2076 200.613 31.064C200.38 35.5038 198.963 39.1151 195.997 42.8289C193.559 45.8808 191.292 47.0013 186.308 47.6174C185.057 47.772 184.679 47.7739 184.593 47.626C184.532 47.5216 184.185 47.2848 183.823 47.0996C182.644 46.4982 182.624 46.4031 182.509 40.7892C182.454 38.0642 182.358 33.4281 182.296 30.4868C182.124 22.342 182.446 16.1426 183.194 13.1966C183.366 12.5187 183.476 12.3759 184.078 12.0563C184.656 11.7489 184.999 11.6907 186.23 11.6907C187.425 11.6907 188.158 11.8086 190.22 12.3312ZM167.703 15.3048C166.737 15.8196 166.085 16.7193 165.404 18.4748C163.995 22.1081 163.598 24.3739 163.59 28.8352C163.583 32.2835 163.884 35.1589 164.545 37.958C165.068 40.1743 167.019 43.4631 167.81 43.4631C169.447 43.4631 171.078 41.6101 172.194 38.4841L172.915 36.4637L172.98 31.8633C173.051 26.8719 173.014 26.466 172.063 21.8005C171.342 18.2604 170.251 15.436 169.492 15.145C168.906 14.9204 168.327 14.9719 167.703 15.3048ZM186.574 16.363C186.566 16.6913 186.479 19.2249 186.379 21.9932C186.207 26.774 186.23 29.6962 186.514 39.3887L186.637 43.5718L188.055 43.2344C190.449 42.6648 191.776 41.7477 193.452 39.5049C194.637 37.9193 195.694 35.7169 196.219 33.74C196.592 32.3332 196.624 31.965 196.627 28.9139C196.631 25.7665 196.611 25.5457 196.211 24.2303C195.389 21.534 193.467 18.1756 192.27 17.3454C191.399 16.741 190.651 16.4766 188.955 16.173C186.332 15.7035 186.59 15.683 186.574 16.363Z" fill="white"/>
<path d="M61.0964 15.0496C60.4224 14.0508 59.0257 12.6247 57.9892 11.8772C57.3447 11.4124 57.2237 11.3837 55.9641 11.3964C54.0959 11.4153 52.3957 11.904 50.7178 12.9045C49.0795 13.8816 47.2207 16.8444 46.5507 19.5468C45.9522 21.961 45.4382 28.1501 45.5634 31.4351C45.7555 36.4732 46.3856 39.5388 47.8441 42.5312C48.9585 44.8178 49.4017 45.388 50.7723 46.2991C54.1215 48.5255 56.6467 48.3464 59.8058 45.6579C61.3364 44.3554 62.3996 42.5109 62.9786 40.1535C63.3801 38.5191 63.5699 34.1537 63.2716 33.4207C62.9781 32.6999 62.2566 32.1485 61.6069 32.1485C61.1486 32.1485 59.9987 32.5481 59.9987 32.7074C59.9987 32.7334 59.8934 33.3137 59.7647 33.9971C59.6359 34.6804 59.4193 36.1643 59.2834 37.2945C58.8559 40.8483 58.0979 42.2648 56.0495 43.3379L54.8969 43.9415L53.8705 43.4273C52.7169 42.8494 52.1536 42.2386 51.3683 40.714C49.9346 37.93 49.3456 33.9197 49.5796 28.534C49.8567 22.1533 50.2706 20.1626 51.8489 17.62C52.6391 16.3472 52.98 16.1498 55.692 15.3945C56.075 15.2878 57.6583 16.9372 58.1771 17.9831C58.6596 18.9563 59.155 20.8216 59.2905 22.1759C59.348 22.7502 59.5278 23.4423 59.6899 23.7137C60.3886 24.8827 61.8555 25.0054 62.7856 23.9726L63.314 23.3857L63.2193 21.9417C63.0548 19.4341 62.2149 16.7073 61.0964 15.0496Z" fill="white"/>
<path d="M117.983 12.4975L117.435 11.9401C116.975 11.4723 116.779 11.3833 116.21 11.3853C114.901 11.3898 114.521 11.816 114.126 13.7196C113.874 14.9332 113.486 30.1783 113.651 32.3862C113.703 33.0837 113.75 36.3599 113.755 39.6669C113.767 46.5861 113.771 46.6113 114.919 47.1786C115.445 47.4385 115.904 47.5245 116.768 47.5245C117.401 47.5245 118.783 47.6389 119.84 47.7789C122.047 48.0707 125.929 48.009 128.761 47.637C130.349 47.4284 130.491 47.3805 130.902 46.9118C131.697 46.0073 131.436 44.6713 130.312 43.888C129.803 43.5327 129.708 43.5216 128.263 43.6489C126.25 43.8261 120.513 43.8296 118.998 43.6546L117.791 43.5151L117.785 39.615C117.782 37.47 117.719 34.8112 117.644 33.7064C117.519 31.8455 117.674 19.9204 117.892 14.6745L117.983 12.4975Z" fill="white"/>
<path d="M104.895 12.3813C103.035 12.3527 100.079 12.2592 98.3262 12.1733C96.5738 12.0874 94.9966 12.0265 94.8213 12.0381C93.6887 12.1131 92.0621 12.3526 91.467 12.5322C90.2517 12.8988 89.6957 14.2678 90.323 15.3485C90.7947 16.1609 91.0765 16.2177 94.6442 16.2177H97.9296L97.9261 18.5954C97.9167 24.7193 97.8672 39.5729 97.8454 42.8018C97.822 46.2681 97.8337 46.4193 98.1611 46.8872C98.4865 47.3523 99.4983 48 99.8993 48C100.279 48 101.362 47.3663 101.585 47.0137C101.781 46.7032 101.814 44.5583 101.819 31.7205C101.823 19.8302 101.864 16.7473 102.023 16.586C102.172 16.4342 102.891 16.3944 104.905 16.4261C107.931 16.4737 108.37 16.3605 109.025 15.362C109.589 14.5029 109.43 13.4944 108.61 12.7398C108.307 12.4601 107.98 12.4285 104.895 12.3813Z" fill="white"/>
<path fill-rule="evenodd" clip-rule="evenodd" d="M80.3568 11.6828C81.7466 12.7189 82.2437 13.2991 82.7481 14.4741C83.843 17.0251 84.6691 20.409 85.395 25.3168C85.6992 27.3732 85.7251 28.0416 85.6553 32.0537C85.5748 36.6839 85.4853 37.4386 84.7417 39.7572C84.3345 41.0269 83.409 42.9202 82.7161 43.9011C82.0516 44.8419 80.7275 46.2673 80.1773 46.6341C79.0232 47.4037 76.3981 47.88 75.1717 47.5425C74.2855 47.2986 73.3656 46.5792 72.4974 45.4511C70.8405 43.298 69.764 41.0935 69.266 38.8331C68.4887 35.3055 68.0539 28.4893 68.3997 25.253C68.9255 20.3341 69.8643 17.4366 71.9646 14.2506C73.2096 12.3622 74.4751 11.5082 76.7716 11.0068C78.7006 10.5858 78.9472 10.6322 80.3568 11.6828ZM74.4712 17.6423C75.0639 16.3505 75.6817 15.6521 76.5886 15.249C77.1536 14.9977 77.6053 14.9781 78.1311 15.1814C78.9635 15.5034 80.101 18.5662 80.8528 22.5098C81.662 26.7551 81.6831 27.0165 81.6154 31.9899L81.552 36.6662L80.8805 38.5683C80.1653 40.5943 79.9817 40.9274 78.8258 42.2935C78.2814 42.937 77.8857 43.2382 77.3148 43.4436C76.8894 43.5968 76.4332 43.6798 76.3011 43.6283C75.6027 43.3555 73.9383 40.5114 73.4113 38.6904C72.6591 36.0911 72.0607 30.7145 72.2072 27.8685C72.4165 23.7964 73.1337 20.5577 74.4712 17.6423Z" fill="white"/>
</svg>
